<svg width="37" height="42" viewBox="0 0 37 42" fill="none" xmlns="http://www.w3.org/2000/svg">
<path fill-rule="evenodd" clip-rule="evenodd" d="M0.729906 0.643994C0.266405 1.15143 0 1.93244 0 2.9473V39.0457C0 40.0606 0.266405 40.8416 0.747234 41.3314L0.872855 41.4395L20.7298 21.2127V20.7582L0.855528 0.535889L0.729906 0.643994Z" fill="url(#paint0_linear_69_2401)"/>
<path fill-rule="evenodd" clip-rule="evenodd" d="M27.3357 27.9815L20.7124 21.2326V20.7605L27.3379 14.0116L27.4808 14.1021L35.317 18.6381C37.5609 19.9265 37.5609 22.0489 35.317 23.355L27.4808 27.891C27.4786 27.891 27.3357 27.9815 27.3357 27.9815Z" fill="url(#paint1_linear_69_2401)"/>
<path fill-rule="evenodd" clip-rule="evenodd" d="M27.4788 27.8911L20.7125 20.9966L0.72998 41.3513C1.45989 42.1499 2.68795 42.2404 4.06113 41.4594L27.4788 27.8911Z" fill="url(#paint2_linear_69_2401)"/>
<path fill-rule="evenodd" clip-rule="evenodd" d="M27.4788 14.1042L4.06113 0.553535C2.69012 -0.245122 1.45989 -0.137017 0.72998 0.66164L20.7104 20.9965L27.4788 14.1042Z" fill="url(#paint3_linear_69_2401)"/>
<path opacity="0.2" fill-rule="evenodd" clip-rule="evenodd" d="M27.3358 27.7454L4.07846 41.2056C2.77892 41.9668 1.62017 41.9138 0.872936 41.2233L0.747314 41.3512L0.872936 41.4593C1.62017 42.1477 2.77892 42.2028 4.07846 41.4417L27.4961 27.891L27.3358 27.7454Z" fill="black"/>
<path opacity="0.12" fill-rule="evenodd" clip-rule="evenodd" d="M35.3148 23.119L27.3184 27.7454L27.4613 27.8911L35.2975 23.355C36.4195 22.702 36.9718 21.8504 36.9718 20.9966C36.9003 21.7776 36.3307 22.5211 35.3148 23.119Z" fill="black"/>
<path opacity="0.25" fill-rule="evenodd" clip-rule="evenodd" d="M4.06105 0.789649L35.3149 18.8763C36.3307 19.4566 36.9003 20.2177 36.9891 20.9987C36.9891 20.1471 36.4368 19.2933 35.3149 18.6403L4.06105 0.553582C1.81719 -0.752508 0 0.335165 0 2.94734V3.18341C0 0.571232 1.81719 -0.498791 4.06105 0.789649Z" fill="white"/>
<defs>
<linearGradient id="paint0_linear_69_2401" x1="18.9351" y1="2.57059" x2="-12.9166" y2="10.8984" gradientUnits="userSpaceOnUse">
<stop stop-color="#00A0FF"/>
<stop offset="0.007" stop-color="#00A1FF"/>
<stop offset="0.26" stop-color="#00BEFF"/>
<stop offset="0.512" stop-color="#00D2FF"/>
<stop offset="0.76" stop-color="#00DFFF"/>
<stop offset="1" stop-color="#00E3FF"/>
</linearGradient>
<linearGradient id="paint1_linear_69_2401" x1="38.2367" y1="20.9908" x2="-0.545541" y2="20.9908" gradientUnits="userSpaceOnUse">
<stop stop-color="#FFE000"/>
<stop offset="0.409" stop-color="#FFBD00"/>
<stop offset="0.775" stop-color="#FFA500"/>
<stop offset="1" stop-color="#FF9C00"/>
</linearGradient>
<linearGradient id="paint2_linear_69_2401" x1="23.8027" y1="24.7407" x2="-2.45969" y2="68.0848" gradientUnits="userSpaceOnUse">
<stop stop-color="#FF3A44"/>
<stop offset="1" stop-color="#C31162"/>
</linearGradient>
<linearGradient id="paint3_linear_69_2401" x1="-4.30469" y1="-11.3781" x2="7.41417" y2="7.96566" gradientUnits="userSpaceOnUse">
<stop stop-color="#32A071"/>
<stop offset="0.069" stop-color="#2DA771"/>
<stop offset="0.476" stop-color="#15CF74"/>
<stop offset="0.801" stop-color="#06E775"/>
<stop offset="1" stop-color="#00F076"/>
</linearGradient>
</defs>
</svg>
