<svg width="72" height="66" viewBox="0 0 72 66" fill="none" xmlns="http://www.w3.org/2000/svg">
<path d="M35.999 46.3433C33.9861 46.3433 32.2988 48.0305 32.2988 50.0434C32.2988 52.0563 33.9861 53.7436 35.999 53.7436C37.9379 53.7436 39.6992 52.0563 39.6104 50.1322C39.6992 48.0157 38.0267 46.3433 35.999 46.3433Z" fill="#FFB800"/>
<path d="M70.2478 59.4565C72.5716 55.4455 72.5864 50.6649 70.2774 46.6687L47.0995 6.52913C44.8054 2.48854 40.6612 0.0908203 36.0138 0.0908203C31.3664 0.0908203 27.2222 2.50334 24.9281 6.51433L1.72053 46.6983C-0.58838 50.7389 -0.573579 55.5491 1.76493 59.5601C4.07385 63.5267 8.20324 65.9096 12.8211 65.9096H59.1177C63.7503 65.9096 67.9093 63.4971 70.2478 59.4565ZM65.2156 56.5555C63.9279 58.7756 61.6486 60.0929 59.1029 60.0929H12.8063C10.2901 60.0929 8.02564 58.8052 6.76757 56.6295C5.49471 54.4242 5.47991 51.7897 6.75277 49.5696L29.9603 9.40047C31.2184 7.19516 33.4681 5.8927 36.0138 5.8927C38.5447 5.8927 40.8092 7.20996 42.0673 9.41527L65.26 49.5844C66.5033 51.7453 66.4885 54.3502 65.2156 56.5555Z" fill="#FFB800"/>
<path d="M35.0814 20.3676C33.3201 20.8709 32.2249 22.4693 32.2249 24.4082C32.3137 25.5775 32.3877 26.7615 32.4765 27.9308C32.7281 32.3858 32.9797 36.752 33.2313 41.207C33.3201 42.7167 34.4894 43.812 35.999 43.812C37.5087 43.812 38.6928 42.6427 38.7668 41.1182C38.7668 40.2006 38.7668 39.3569 38.8556 38.4245C39.0184 35.568 39.196 32.7114 39.3588 29.8549C39.4476 28.0048 39.6104 26.1547 39.6992 24.3046C39.6992 23.6386 39.6104 23.0466 39.3588 22.4545C38.604 20.7969 36.8427 19.9532 35.0814 20.3676Z" fill="#FFB800"/>
</svg>
