<svg width="72" height="72" viewBox="0 0 72 72" fill="none" xmlns="http://www.w3.org/2000/svg">
<g clip-path="url(#clip0_21_15314)">
<path d="M26.1819 0H6.54551C2.93549 0 0 2.93549 0 6.54551V26.1819C0 29.7918 2.93549 32.7274 6.54551 32.7274H26.1819C29.7918 32.7274 32.7274 29.7919 32.7274 26.1819V6.54551C32.7272 2.93549 29.7918 0 26.1819 0Z" fill="#D4D4D4"/>
<path d="M65.4546 0H45.8182C42.2082 0 39.2727 2.93549 39.2727 6.54551V26.1819C39.2727 29.7918 42.2082 32.7274 45.8182 32.7274H65.4546C69.0645 32.7274 72.0001 29.7919 72.0001 26.1819V6.54551C72 2.93549 69.0645 0 65.4546 0Z" fill="#D4D4D4"/>
<path d="M26.1819 39.2727H6.54551C2.93549 39.2727 0 42.2082 0 45.8182V65.4546C0 69.0645 2.93549 72.0001 6.54551 72.0001H26.1819C29.7918 72.0001 32.7274 69.0646 32.7274 65.4546V45.8182C32.7272 42.2082 29.7918 39.2727 26.1819 39.2727Z" fill="#D4D4D4"/>
<path d="M63.8182 52.3636H58.9091V47.4545C58.9091 46.55 58.1772 45.8181 57.2727 45.8181H54C53.0955 45.8181 52.3636 46.55 52.3636 47.4545V52.3636H47.4545C46.55 52.3636 45.8181 53.0955 45.8181 54V57.2727C45.8181 58.1772 46.55 58.9091 47.4545 58.9091H52.3636V63.8182C52.3636 64.7227 53.0955 65.4547 54 65.4547H57.2727C58.1772 65.4547 58.9091 64.7227 58.9091 63.8182V58.9091H63.8182C64.7227 58.9091 65.4547 58.1772 65.4547 57.2727V54C65.4547 53.0955 64.7227 52.3636 63.8182 52.3636Z" fill="#D4D4D4"/>
</g>
<defs>
<clipPath id="clip0_21_15314">
<rect width="72" height="72" fill="white"/>
</clipPath>
</defs>
</svg>
