<svg width="12" height="12" viewBox="0 0 12 12" fill="none" xmlns="http://www.w3.org/2000/svg">
<path d="M10.9282 0.5L6 0.500492L1.07177 0.5C0.480961 0.5 0 0.983891 0 1.57911C0 1.74172 0.0371016 1.89943 0.109875 2.04786C0.908695 3.6875 2.24855 6.01271 3.43069 8.06445C4.04836 9.13672 4.63186 10.1494 5.05373 10.919C5.25345 11.2827 5.60695 11.5 6.00052 11.5C6.39359 11.5 6.74709 11.2827 6.94681 10.919C7.36819 10.1499 7.9512 9.1377 8.5684 8.06642C9.75101 6.01416 11.0909 3.68799 11.8902 2.04884C11.9629 1.89992 12 1.74172 12 1.57911C12 0.983891 11.519 0.5 10.9282 0.5Z" fill="white"/>
</svg>
