<svg width="86" height="86" viewBox="0 0 86 86" fill="none" xmlns="http://www.w3.org/2000/svg">
<g filter="url(#filter0_dd_7_775)">
<rect x="24" y="24" width="40" height="40" rx="20" fill="white"/>
</g>
<g clip-path="url(#clip0_7_775)">
<path d="M53.3774 36.4335L51.5651 34.621C50.737 33.793 49.3897 33.793 48.5617 34.621L47.8523 35.3305L52.6681 40.1466L53.3774 39.4372C54.2074 38.6072 54.2076 37.2637 53.3774 36.4335Z" fill="#404040"/>
<path d="M34.8598 48.7167L34.0098 53.3073C33.9747 53.4971 34.0352 53.6919 34.1716 53.8284C34.3082 53.965 34.5031 54.0253 34.6926 53.9902L39.2829 53.1401L34.8598 48.7167Z" fill="#404040"/>
<path d="M47.0236 36.1592L35.4921 47.6917L40.3078 52.5078L51.8394 40.9753L47.0236 36.1592Z" fill="#404040"/>
</g>
<defs>
<filter id="filter0_dd_7_775" x="0" y="0" width="86" height="86" filterUnits="userSpaceOnUse" color-interpolation-filters="sRGB">
<feFlood flood-opacity="0" result="BackgroundImageFix"/>
<feColorMatrix in="SourceAlpha" type="matrix" values="0 0 0 0 0 0 0 0 0 0 0 0 0 0 0 0 0 0 127 0" result="hardAlpha"/>
<feOffset dx="-4" dy="-4"/>
<feGaussianBlur stdDeviation="10"/>
<feComposite in2="hardAlpha" operator="out"/>
<feColorMatrix type="matrix" values="0 0 0 0 1 0 0 0 0 1 0 0 0 0 1 0 0 0 1 0"/>
<feBlend mode="normal" in2="BackgroundImageFix" result="effect1_dropShadow_7_775"/>
<feColorMatrix in="SourceAlpha" type="matrix" values="0 0 0 0 0 0 0 0 0 0 0 0 0 0 0 0 0 0 127 0" result="hardAlpha"/>
<feOffset dx="2" dy="2"/>
<feGaussianBlur stdDeviation="10"/>
<feComposite in2="hardAlpha" operator="out"/>
<feColorMatrix type="matrix" values="0 0 0 0 0 0 0 0 0 0 0 0 0 0 0 0 0 0 0.15 0"/>
<feBlend mode="normal" in2="effect1_dropShadow_7_775" result="effect2_dropShadow_7_775"/>
<feBlend mode="normal" in="SourceGraphic" in2="effect2_dropShadow_7_775" result="shape"/>
</filter>
<clipPath id="clip0_7_775">
<rect width="20" height="20" fill="white" transform="translate(34 34)"/>
</clipPath>
</defs>
</svg>
