<svg width="20" height="20" viewBox="0 0 20 20" fill="none" xmlns="http://www.w3.org/2000/svg">
<path d="M9.98925 -5.34503e-05C9.85776 0.0012406 9.7278 0.0285435 9.60683 0.0803399C9.48586 0.132136 9.37624 0.207402 9.28426 0.301797C9.19228 0.396191 9.11973 0.507933 9.07076 0.630521C9.0218 0.75311 8.99739 0.884149 8.99892 1.01623V9.0543C8.999 9.32092 9.1045 9.57664 9.29223 9.76515C9.47996 9.95366 9.73454 10.0595 10 10.0595C10.2655 10.0595 10.52 9.95366 10.7078 9.76515C10.8955 9.57664 11.001 9.32092 11.0011 9.0543V1.01623C11.0026 0.882331 10.9775 0.749454 10.9272 0.625446C10.8769 0.501439 10.8025 0.388752 10.7082 0.294069C10.6139 0.199385 10.5018 0.12463 10.3783 0.0741115C10.2548 0.0235929 10.1226 -0.00161822 9.98925 -5.34503e-05ZM15.8238 2.01486C15.7912 2.01391 15.7586 2.01456 15.7261 2.01682C15.5284 2.03368 15.3401 2.10926 15.1853 2.23389C15.0304 2.35853 14.916 2.52656 14.8565 2.71671C14.797 2.90686 14.7952 3.11054 14.8513 3.30173C14.9074 3.49292 15.0188 3.66303 15.1714 3.79043C16.9038 5.26808 17.9998 7.46739 17.9998 9.93712C17.9998 14.3966 14.4347 17.9909 10.0049 17.9909C5.57505 17.9909 2.00214 14.3966 2.00214 9.93712C2.00215 7.48168 3.08422 5.2973 4.79929 3.81984C4.89921 3.73418 4.98135 3.62955 5.04103 3.512C5.1007 3.39445 5.13674 3.26625 5.14708 3.13471C5.15742 3.00317 5.14187 2.87094 5.10131 2.74543C5.06074 2.61993 4.99597 2.50369 4.91068 2.40333C4.82538 2.30297 4.72124 2.22047 4.60421 2.16053C4.48717 2.1006 4.35953 2.06434 4.22856 2.05396C4.0976 2.04357 3.96589 2.05923 3.84094 2.09998C3.71599 2.14073 3.60025 2.20577 3.50034 2.29145C1.35939 4.13578 9.41103e-06 6.88485 0 9.93712C-8.99526e-06 15.4805 4.49228 19.9999 10.0049 19.9999C15.5175 19.9999 20 15.4805 20 9.93712C20 6.86705 18.6272 4.10667 16.4645 2.26203C16.2866 2.10632 16.0597 2.01877 15.8238 2.01486H15.8238Z" fill="#404040"/>
</svg>
