<svg width="16" height="16" viewBox="0 0 16 16" fill="none" xmlns="http://www.w3.org/2000/svg">
<path d="M9.40625 14.5938L9.40625 9.40625L14.5938 9.40625C15.3704 9.40625 16 8.77666 16 8C16 7.22334 15.3704 6.59375 14.5938 6.59375L9.40625 6.59375L9.40625 1.40625C9.40625 0.629594 8.77666 8.61375e-08 8 9.5399e-08C7.22334 1.04661e-07 6.59375 0.629594 6.59375 1.40625L6.59375 6.59375L1.40625 6.59375C0.629594 6.59375 8.61375e-08 7.22334 9.5399e-08 8C1.04661e-07 8.77666 0.629594 9.40625 1.40625 9.40625L6.59375 9.40625L6.59375 14.5938C6.59375 15.3704 7.22334 16 8 16C8.77666 16 9.40625 15.3704 9.40625 14.5938Z" fill="white"/>
</svg>
