<svg width="24" height="24" viewBox="0 0 24 24" fill="none" xmlns="http://www.w3.org/2000/svg">
<path d="M16.2089 11.784C15.011 12.752 13.4875 13.3328 11.8309 13.3328C10.1743 13.3328 8.65076 12.752 7.45257 11.7838C4.82821 13.3017 3.05859 16.1396 3.05859 19.3832V22.5579C3.05859 22.9336 3.36319 23.2383 3.73906 23.2383H19.9226C20.2983 23.2383 20.6028 22.9336 20.6028 22.5579V19.3832C20.6028 16.1398 18.8333 13.3019 16.2089 11.784Z" fill="#D4D4D4"/>
<path d="M17.4479 6.35504C17.4479 3.258 14.9283 0.738281 11.8311 0.738281C8.73407 0.738281 6.21436 3.258 6.21436 6.35504C6.21436 9.45209 8.73407 11.9718 11.8311 11.9718C14.9283 11.9718 17.4479 9.45209 17.4479 6.35504Z" fill="#D4D4D4"/>
</svg>
