<svg width="20" height="20" viewBox="0 0 20 20" fill="none" xmlns="http://www.w3.org/2000/svg">
<path d="M8.94484 -0.0672607C3.98342 -0.0672607 -0.0581055 3.97426 -0.0581055 8.93569C-0.0581055 13.8971 3.98342 17.9465 8.94484 17.9465C11.064 17.9465 13.013 17.2038 14.5534 15.9708L18.3034 19.7189C18.4927 19.9003 18.7454 20.0004 19.0076 19.9977C19.2697 19.995 19.5204 19.8898 19.7059 19.7046C19.8914 19.5193 19.997 19.2689 20 19.0067C20.0031 18.7446 19.9033 18.4917 19.7222 18.3022L15.9721 14.5521C17.2062 13.0094 17.9497 11.0573 17.9497 8.93569C17.9497 3.97426 13.9063 -0.0672607 8.94484 -0.0672607V-0.0672607ZM8.94484 1.93386C12.8248 1.93386 15.9467 5.05575 15.9467 8.93569C15.9467 12.8156 12.8248 15.9454 8.94484 15.9454C5.06489 15.9454 1.94298 12.8156 1.94298 8.93569C1.94298 5.05575 5.06489 1.93386 8.94484 1.93386Z" fill="white"/>
</svg>
